<svg width="24" height="28" viewBox="0 0 24 28" fill="none" xmlns="http://www.w3.org/2000/svg">
<path opacity="0.4" d="M20.0089 21C18.5089 21 18.3273 22.75 16.0045 22.75C13.6714 22.75 13.508 21 12 21C10.5386 21 10.3039 22.75 8.00893 22.75C5.67857 22.75 5.50179 21 4.00446 21C2.50714 21 2.32286 22.75 0 22.75V28H24V22.75C21.683 22.75 21.4821 21 20.0089 21ZM5.14286 5.25C6.09375 5.25 6.85714 4.51172 6.85714 3.0625C6.85714 1.61328 5.78571 0 5.14286 0C5.14286 2.24219 3.42857 1.80469 3.42857 3.5C3.42786 3.73002 3.47172 3.9579 3.55762 4.17055C3.64352 4.3832 3.76977 4.5764 3.9291 4.73905C4.08842 4.90169 4.27769 5.03057 4.48599 5.11826C4.6943 5.20595 4.91754 5.25072 5.14286 5.25ZM12 5.25C12.9509 5.25 13.7143 4.51172 13.7143 3.0625C13.7143 1.61328 12.6429 0 12 0C12 2.24219 10.2857 1.80469 10.2857 3.5C10.285 3.73002 10.3289 3.9579 10.4148 4.17055C10.5007 4.3832 10.6269 4.5764 10.7862 4.73905C10.9456 4.90169 11.1348 5.03057 11.3431 5.11826C11.5514 5.20595 11.7747 5.25072 12 5.25ZM18.8571 5.25C19.808 5.25 20.5714 4.51172 20.5714 3.0625C20.5714 1.61328 19.5 0 18.8571 0C18.8571 2.24219 17.1429 1.80469 17.1429 3.5C17.1421 3.73002 17.186 3.9579 17.2719 4.17055C17.3578 4.3832 17.4841 4.5764 17.6434 4.73905C17.8027 4.90169 17.992 5.03057 18.2003 5.11826C18.4086 5.20595 18.6318 5.25072 18.8571 5.25Z" fill="#FF8A00"/>
<path d="M24 21C22.5 21 22.3254 19.25 20.0089 19.25C17.6823 19.25 17.5002 21 16.0045 21C14.5205 21 14.3196 19.25 12 19.25C9.705 19.25 9.47036 21 8.00893 21C6.50089 21 6.3375 19.25 4.00446 19.25C1.67143 19.25 1.50536 21 0 21V16.625C0 15.9288 0.270918 15.2611 0.753154 14.7688C1.23539 14.2766 1.88944 14 2.57143 14H3.42857V6.125H6.85714V14H10.2857V6.125H13.7143V14H17.1429V6.125H20.5714V14H21.4286C22.1106 14 22.7646 14.2766 23.2468 14.7688C23.7291 15.2611 24 15.9288 24 16.625V21Z" fill="#00B2FF"/>
</svg>
