<svg width="64" height="54" viewBox="0 0 64 54" fill="none" xmlns="http://www.w3.org/2000/svg">
<g clip-path="url(#clip0)">
<path opacity="0.4" d="M42.6671 6.75C42.6671 6.99258 42.3005 7.39336 41.656 7.83633C42.4045 8.70529 43.025 9.66683 43.5005 10.6945C45.1938 9.58711 46.2227 8.22656 46.2227 6.75C46.2227 3.02695 39.856 0 32.0005 0C24.1449 0 17.7783 3.02695 17.7783 6.75C17.7783 8.22656 18.8116 9.58711 20.5005 10.6945C20.9646 9.66123 21.586 8.69823 22.3449 7.83633C21.7005 7.40391 21.3338 7.00313 21.3338 6.75C21.3338 5.90625 25.1116 3.375 32.0005 3.375C38.8894 3.375 42.6671 5.90625 42.6671 6.75ZM63.5305 47.7879L59.2894 39.498C58.9274 38.7896 58.7393 38.0125 58.7393 37.2252C58.7393 36.4379 58.9274 35.6608 59.2894 34.9523C59.8216 33.9188 60.2549 33.191 60.6105 32.6215C61.6671 30.8707 62.2227 29.8266 62.2227 27C62.2227 21.6105 57.0149 16.875 51.0727 16.875C49.6996 16.8799 48.3414 17.1445 47.0773 17.6534C45.8132 18.1623 44.6687 18.9052 43.7105 19.8387L35.6505 27.5664C37.0882 28.0213 38.4172 28.7411 39.5612 29.6846C40.7052 30.6281 41.6418 31.7767 42.3171 33.0645L53.3338 54H59.5116C60.2718 53.9995 61.0193 53.8153 61.6838 53.4647C62.3482 53.1141 62.9077 52.6087 63.3094 51.9961C63.72 51.3703 63.9558 50.6555 63.9945 49.9192C64.0332 49.1829 63.8735 48.4493 63.5305 47.7879ZM12.9271 16.875C6.98492 16.875 1.77825 21.6105 1.77825 27C1.77825 29.8266 2.33381 30.8707 3.39159 32.6215C3.74714 33.191 4.18047 33.9188 4.7127 34.9523C5.07468 35.6608 5.26275 36.4379 5.26275 37.2252C5.26275 38.0125 5.07468 38.7896 4.7127 39.498L0.470474 47.7879C0.127639 48.4494 -0.0318715 49.183 0.00701149 49.9193C0.0458945 50.6557 0.281887 51.3704 0.692697 51.9961C1.0943 52.6086 1.65356 53.1139 2.3178 53.4645C2.98203 53.8151 3.72935 53.9994 4.48936 54H10.6671L21.6916 33.0645C22.367 31.7767 23.3035 30.6281 24.4475 29.6846C25.5915 28.7411 26.9205 28.0213 28.3583 27.5664L20.2894 19.8387C19.3312 18.9052 18.1866 18.1623 16.9225 17.6534C15.6584 17.1445 14.3002 16.8799 12.9271 16.875Z" fill="#FF8A00"/>
<path d="M32 23.625C33.7581 23.625 35.4767 23.1302 36.9384 22.203C38.4002 21.2759 39.5395 19.9581 40.2123 18.4164C40.8851 16.8746 41.0611 15.1781 40.7181 13.5414C40.3751 11.9047 39.5285 10.4013 38.2854 9.22129C37.0423 8.04128 35.4584 7.23769 33.7342 6.91213C32.0099 6.58657 30.2226 6.75366 28.5984 7.39227C26.9742 8.03088 25.5859 9.11234 24.6092 10.4999C23.6325 11.8874 23.1111 13.5187 23.1111 15.1875C23.1111 17.4253 24.0476 19.5714 25.7146 21.1537C27.3816 22.7361 29.6425 23.625 32 23.625ZM42.3778 33.0687C41.4096 31.2442 39.9267 29.7109 38.0943 28.6395C36.262 27.5681 34.1521 27.0007 32 27.0007C29.8479 27.0007 27.7381 27.5681 25.9057 28.6395C24.0733 29.7109 22.5904 31.2442 21.6222 33.0687L10.6667 54H53.3334L42.3778 33.0687Z" fill="#00B2FF"/>
</g>
<defs>
<clipPath id="clip0">
<rect width="64" height="54" fill="white"/>
</clipPath>
</defs>
</svg>
