<svg width="20" height="24" viewBox="0 0 20 24" fill="none" xmlns="http://www.w3.org/2000/svg">
<g clip-path="url(#clip0)">
<path opacity="0.4" d="M1.07143 9H10V15.0066H1.07143C0.787268 15.0066 0.514746 14.888 0.313814 14.6771C0.112882 14.4661 0 14.1799 0 13.8816L0 10.125C0 9.82663 0.112882 9.54048 0.313814 9.3295C0.514746 9.11853 0.787268 9 1.07143 9Z" fill="white"/>
<path d="M11.8304 3.33332L19.6875 11.2032C19.8884 11.4147 20.0012 11.7013 20.0012 12C20.0012 12.2988 19.8884 12.5853 19.6875 12.7969L11.8304 20.6691C11.1563 21.3774 10 20.8753 10 19.8722V4.13019C10 3.12613 11.1496 2.62504 11.8304 3.33332Z" fill="white"/>
</g>
<defs>
<clipPath id="clip0">
<rect width="20" height="24" fill="white"/>
</clipPath>
</defs>
</svg>
