<svg width="20" height="24" viewBox="0 0 20 24" fill="none" xmlns="http://www.w3.org/2000/svg">
<g clip-path="url(#clip0)">
<path opacity="0.4" d="M18.9286 9H10V15.0066H18.9286C19.2127 15.0066 19.4853 14.888 19.6862 14.6771C19.8871 14.4661 20 14.1799 20 13.8816V10.125C20 9.82663 19.8871 9.54048 19.6862 9.3295C19.4853 9.11853 19.2127 9 18.9286 9Z" fill="white"/>
<path d="M8.16964 3.33332L0.312499 11.2032C0.111637 11.4147 -0.00115204 11.7013 -0.00115204 12C-0.00115204 12.2988 0.111637 12.5853 0.312499 12.7969L8.16964 20.6691C8.84375 21.3774 10 20.8753 10 19.8722V4.13019C10 3.12613 8.85045 2.62504 8.16964 3.33332Z" fill="white"/>
</g>
<defs>
<clipPath id="clip0">
<rect width="20" height="24" fill="white" transform="matrix(-1 0 0 1 20 0)"/>
</clipPath>
</defs>
</svg>
