<svg width="64" height="54" viewBox="0 0 64 54" fill="none" xmlns="http://www.w3.org/2000/svg">
<g clip-path="url(#clip0)">
<path opacity="0.4" d="M22.4 26.1559V12.8331C22.3981 12.2613 22.535 11.6985 22.7975 11.1982C23.0601 10.6979 23.4396 10.2768 23.9 9.97491L27.25 7.77061C28.2681 7.10477 29.442 6.75124 30.64 6.74968H40.861L51.2 0.451082C51.564 0.22939 51.9659 0.0855049 52.3826 0.0276464C52.7993 -0.0302121 53.2228 -0.000910342 53.6288 0.113878C54.0348 0.228666 54.4154 0.426692 54.7488 0.696642C55.0822 0.966593 55.3619 1.30318 55.572 1.68718L63.572 16.3051C63.996 17.08 64.111 18.0008 63.8916 18.8651C63.6722 19.7293 63.1364 20.4664 62.402 20.9141L54.402 25.7868V22.7809C54.402 21.2145 53.812 19.7122 52.7618 18.6046C51.7116 17.4969 50.2872 16.8747 48.802 16.8747H30.4V26.1559C30.4 27.2748 29.9786 28.3479 29.2284 29.139C28.4783 29.9302 27.4609 30.3747 26.4 30.3747C25.3391 30.3747 24.3217 29.9302 23.5716 29.139C22.8214 28.3479 22.4 27.2748 22.4 26.1559Z" fill="#FF8A00"/>
<path d="M0.432044 37.6924C0.220933 37.3091 0.0836653 36.8856 0.0281203 36.4462C-0.0274248 36.0069 -0.000154054 35.5603 0.108367 35.132C0.216889 34.7038 0.404524 34.3024 0.660506 33.9508C0.916487 33.5993 1.23577 33.3045 1.60004 33.0834L9.60004 28.2107V23.2221C9.60033 22.0573 9.88702 20.9125 10.4321 19.8995C10.9772 18.8865 11.7621 18.0399 12.71 17.4424L19.199 13.3291V26.1562C19.199 28.1702 19.9576 30.1017 21.3079 31.5258C22.6581 32.9499 24.4895 33.75 26.399 33.75C28.3086 33.75 30.14 32.9499 31.4902 31.5258C32.8405 30.1017 33.599 28.1702 33.599 26.1562V20.25H48.8C49.1154 20.2491 49.4279 20.314 49.7194 20.4409C50.011 20.5679 50.2758 20.7543 50.4989 20.9895C50.7219 21.2247 50.8986 21.5041 51.019 21.8116C51.1393 22.119 51.2008 22.4486 51.2 22.7812V27.8437C51.2008 28.1764 51.1393 28.5059 51.019 28.8134C50.8986 29.1208 50.7219 29.4002 50.4989 29.6354C50.2758 29.8707 50.011 30.0571 49.7194 30.184C49.4279 30.3109 49.1154 30.3758 48.8 30.375H48V37.125C48 38.0201 47.6629 38.8785 47.0628 39.5114C46.4627 40.1444 45.6487 40.5 44.8 40.5H43.2C43.1985 42.2897 42.5237 44.0056 41.3238 45.2711C40.1239 46.5366 38.4969 47.2483 36.8 47.25H23.141L12.8 53.5443C12.0657 53.9911 11.1934 54.1123 10.3744 53.8813C9.55551 53.6504 8.85693 53.0861 8.43204 52.3125L0.432044 37.6924Z" fill="#00B2FF"/>
</g>
<defs>
<clipPath id="clip0">
<rect width="64" height="54" fill="white"/>
</clipPath>
</defs>
</svg>
