<svg width="248" height="56" viewBox="0 0 248 56" fill="none" xmlns="http://www.w3.org/2000/svg">
<g clip-path="url(#clip0)">
<path opacity="0.4" d="M49 46.4034C49 50.2206 46.0677 52.5011 41.1534 52.5011C35.8586 52.5011 32.3214 49.7579 28 49.7579C23.7158 49.7579 20.1884 52.5011 14.8466 52.5011C9.93344 52.5 7 50.2206 7 46.4034C7 37.9279 19.3156 24.5 28 24.5C36.6844 24.5 49 37.9279 49 46.4034Z" fill="#FF8A00"/>
<path d="M51.9356 17.64C48.7506 16.8744 45.2473 19.3331 44.1087 23.123C42.9701 26.9128 44.6305 30.602 47.8155 31.3633C51.0005 32.1245 54.5037 29.6701 55.6423 25.8803C56.7809 22.0905 55.125 18.4012 51.9356 17.64ZM4.06546 17.64C0.880458 18.4001 -0.77876 22.0937 0.35874 25.8792C1.49624 29.6647 5.00061 32.1234 8.18561 31.3622C11.3706 30.6009 13.0298 26.9117 11.8923 23.1219C10.7548 19.332 7.25046 16.8776 4.06546 17.6389V17.64ZM16.4686 3.65201C13.0845 4.54233 11.3914 9.1142 12.6864 13.8633C13.9814 18.6123 17.7756 21.7383 21.1586 20.849C24.5416 19.9598 26.2358 15.3869 24.9375 10.6378C23.6392 5.88873 19.8526 2.7617 16.4686 3.65201ZM39.5336 3.65201C36.1495 2.76061 32.3564 5.88873 31.0625 10.6378C29.7686 15.3869 31.4606 19.9587 34.8447 20.849C38.2287 21.7394 42.0219 18.6123 43.3169 13.8633C44.6119 9.1142 42.9176 4.54342 39.5336 3.65201Z" fill="#00B2FF"/>
</g>
<path d="M92.5 9.04V23H89.7V13.26L86.12 23H83.68L80.1 13.3V23H77.28V9.04H80.7L84.94 19.54L89.1 9.04H92.5ZM97.8734 11.12V14.78H102.873V16.94H97.8734V20.74H103.473V23H95.0534V8.88H103.473V11.12H97.8734ZM102.233 6.26L99.2734 7.92L96.2934 6.26V4.36L99.2734 6.06L102.233 4.36V6.26ZM115.261 19.14C115.261 19.86 115.081 20.5267 114.721 21.14C114.361 21.74 113.828 22.2267 113.121 22.6C112.415 22.96 111.555 23.14 110.541 23.14C109.541 23.14 108.648 22.9733 107.861 22.64C107.075 22.2933 106.441 21.8 105.961 21.16C105.495 20.52 105.228 19.7733 105.161 18.92H108.161C108.228 19.4933 108.455 19.9733 108.841 20.36C109.241 20.7333 109.768 20.92 110.421 20.92C111.008 20.92 111.455 20.7667 111.761 20.46C112.081 20.14 112.241 19.7333 112.241 19.24C112.241 18.8 112.115 18.44 111.861 18.16C111.608 17.8667 111.288 17.6333 110.901 17.46C110.515 17.2867 109.981 17.0867 109.301 16.86C108.421 16.5667 107.701 16.28 107.141 16C106.581 15.7067 106.101 15.2867 105.701 14.74C105.315 14.1933 105.121 13.48 105.121 12.6C105.121 11.3867 105.555 10.4333 106.421 9.74C107.301 9.03333 108.461 8.68 109.901 8.68C111.395 8.68 112.581 9.04 113.461 9.76C114.355 10.48 114.861 11.44 114.981 12.64H111.941C111.861 12.1333 111.648 11.72 111.301 11.4C110.955 11.0667 110.481 10.9 109.881 10.9C109.361 10.9 108.941 11.04 108.621 11.32C108.301 11.5867 108.141 11.98 108.141 12.5C108.141 12.9133 108.261 13.26 108.501 13.54C108.755 13.8067 109.068 14.0267 109.441 14.2C109.828 14.3733 110.348 14.5667 111.001 14.78C111.908 15.1 112.641 15.4 113.201 15.68C113.775 15.96 114.261 16.38 114.661 16.94C115.061 17.5 115.261 18.2333 115.261 19.14ZM126.939 8.88V11.12H123.039V23H120.219V11.12H116.339V8.88H126.939ZM138.191 19.14C138.191 19.86 138.011 20.5267 137.651 21.14C137.291 21.74 136.758 22.2267 136.051 22.6C135.344 22.96 134.484 23.14 133.471 23.14C132.471 23.14 131.578 22.9733 130.791 22.64C130.004 22.2933 129.371 21.8 128.891 21.16C128.424 20.52 128.158 19.7733 128.091 18.92H131.091C131.158 19.4933 131.384 19.9733 131.771 20.36C132.171 20.7333 132.698 20.92 133.351 20.92C133.938 20.92 134.384 20.7667 134.691 20.46C135.011 20.14 135.171 19.7333 135.171 19.24C135.171 18.8 135.044 18.44 134.791 18.16C134.538 17.8667 134.218 17.6333 133.831 17.46C133.444 17.2867 132.911 17.0867 132.231 16.86C131.351 16.5667 130.631 16.28 130.071 16C129.511 15.7067 129.031 15.2867 128.631 14.74C128.244 14.1933 128.051 13.48 128.051 12.6C128.051 11.3867 128.484 10.4333 129.351 9.74C130.231 9.03333 131.391 8.68 132.831 8.68C134.324 8.68 135.511 9.04 136.391 9.76C137.284 10.48 137.791 11.44 137.911 12.64H134.871C134.791 12.1333 134.578 11.72 134.231 11.4C133.884 11.0667 133.411 10.9 132.811 10.9C132.291 10.9 131.871 11.04 131.551 11.32C131.231 11.5867 131.071 11.98 131.071 12.5C131.071 12.9133 131.191 13.26 131.431 13.54C131.684 13.8067 131.998 14.0267 132.371 14.2C132.758 14.3733 133.278 14.5667 133.931 14.78C134.838 15.1 135.571 15.4 136.131 15.68C136.704 15.96 137.191 16.38 137.591 16.94C137.991 17.5 138.191 18.2333 138.191 19.14ZM145.748 15.82L151.728 23H148.308L143.088 16.54V23H140.268V8.88H143.088V15.22L148.328 8.88H151.728L145.748 15.82ZM164.676 8.88L159.896 18.06V23H157.056V18.06L152.256 8.88H155.496L158.496 15.06L161.496 8.88H164.676ZM161.496 5.88L156.896 8.04V6.12L161.496 3.72V5.88ZM173.262 8.88V17.16C173.262 18.2667 173.502 19.1 173.982 19.66C174.475 20.2067 175.182 20.48 176.102 20.48C177.008 20.48 177.702 20.2067 178.182 19.66C178.675 19.1 178.922 18.2667 178.922 17.16V8.88H181.722V17.16C181.722 18.4667 181.475 19.5733 180.982 20.48C180.502 21.3733 179.828 22.04 178.962 22.48C178.108 22.92 177.135 23.14 176.042 23.14C174.348 23.14 172.995 22.6333 171.982 21.62C170.968 20.6067 170.462 19.12 170.462 17.16V8.88H173.262ZM179.102 5.88L174.502 8.04V6.12L179.102 3.72V5.88ZM193.794 8.88V11.12H189.894V23H187.074V11.12H183.194V8.88H193.794ZM198.066 8.88V17.16C198.066 18.2667 198.306 19.1 198.786 19.66C199.28 20.2067 199.986 20.48 200.906 20.48C201.813 20.48 202.506 20.2067 202.986 19.66C203.48 19.1 203.726 18.2667 203.726 17.16V8.88H206.526V17.16C206.526 18.4667 206.28 19.5733 205.786 20.48C205.306 21.3733 204.633 22.04 203.766 22.48C202.913 22.92 201.94 23.14 200.846 23.14C199.153 23.14 197.8 22.6333 196.786 21.62C195.773 20.6067 195.266 19.12 195.266 17.16V8.88H198.066ZM211.819 20.84H216.559V23H208.999V8.88H211.819V20.84ZM221.057 11.12V14.78H226.057V16.94H221.057V20.74H226.657V23H218.237V8.88H226.657V11.12H221.057ZM234.225 15.82L240.205 23H236.785L231.565 16.54V23H228.745V8.88H231.565V15.22L236.805 8.88H240.205L234.225 15.82ZM89.24 47H86.42L80.1 37.4V47H77.28V32.88H80.1L86.42 42.56V32.88H89.24V47ZM94.6117 35.12V38.78H99.6117V40.94H94.6117V44.74H100.212V47H91.7917V32.88H100.212V35.12H94.6117ZM109.66 47L106.36 41.5H105.12V47H102.3V32.88H107.68C109.32 32.88 110.566 33.28 111.42 34.08C112.286 34.88 112.72 35.9333 112.72 37.24C112.72 38.3067 112.42 39.2 111.82 39.92C111.233 40.64 110.38 41.12 109.26 41.36L112.78 47H109.66ZM105.12 39.56H107.44C109.053 39.56 109.86 38.8467 109.86 37.42C109.86 36.74 109.66 36.2133 109.26 35.84C108.873 35.4533 108.266 35.26 107.44 35.26H105.12V39.56ZM123.224 44.16H117.564L116.564 47H113.584L118.784 33.04H122.004L127.184 47H124.204L123.224 44.16ZM122.464 42.02L120.384 36.06L118.304 42.02H122.464ZM138.306 32.88V35.12H134.406V47H131.586V35.12H127.706V32.88H138.306ZM146.478 32.68C147.798 32.68 148.991 32.9867 150.058 33.6C151.138 34.2133 151.985 35.0733 152.598 36.18C153.225 37.2733 153.538 38.5133 153.538 39.9C153.538 41.2867 153.225 42.5333 152.598 43.64C151.985 44.7467 151.138 45.6067 150.058 46.22C148.991 46.8333 147.798 47.14 146.478 47.14C145.158 47.14 143.958 46.8333 142.878 46.22C141.811 45.6067 140.965 44.7467 140.338 43.64C139.725 42.5333 139.418 41.2867 139.418 39.9C139.418 38.5133 139.725 37.2733 140.338 36.18C140.965 35.0733 141.811 34.2133 142.878 33.6C143.958 32.9867 145.158 32.68 146.478 32.68ZM146.478 35.28C145.651 35.28 144.925 35.4667 144.298 35.84C143.671 36.2133 143.178 36.7533 142.818 37.46C142.471 38.1533 142.298 38.9667 142.298 39.9C142.298 40.8333 142.471 41.6533 142.818 42.36C143.178 43.0533 143.671 43.5867 144.298 43.96C144.925 44.3333 145.651 44.52 146.478 44.52C147.305 44.52 148.031 44.3333 148.658 43.96C149.285 43.5867 149.771 43.0533 150.118 42.36C150.478 41.6533 150.658 40.8333 150.658 39.9C150.658 38.9667 150.478 38.1533 150.118 37.46C149.771 36.7533 149.285 36.2133 148.658 35.84C148.031 35.4667 147.305 35.28 146.478 35.28ZM157.639 32.88L161.419 44.06L165.219 32.88H168.239L163.239 47H159.619L154.619 32.88H157.639ZM172.58 32.88V47H169.76V32.88H172.58ZM181.512 32.74C183.272 32.74 184.732 33.1933 185.892 34.1C187.052 35.0067 187.818 36.24 188.192 37.8H185.232C184.925 37.04 184.445 36.44 183.792 36C183.152 35.56 182.378 35.34 181.472 35.34C180.725 35.34 180.052 35.5267 179.452 35.9C178.852 36.2733 178.385 36.8067 178.052 37.5C177.718 38.1933 177.552 39.0067 177.552 39.94C177.552 40.86 177.718 41.6667 178.052 42.36C178.385 43.0533 178.852 43.5867 179.452 43.96C180.052 44.3333 180.725 44.52 181.472 44.52C182.378 44.52 183.152 44.3 183.792 43.86C184.445 43.42 184.925 42.82 185.232 42.06H188.192C187.818 43.62 187.052 44.8533 185.892 45.76C184.732 46.6667 183.272 47.12 181.512 47.12C180.165 47.12 178.972 46.82 177.932 46.22C176.905 45.6067 176.105 44.7533 175.532 43.66C174.972 42.5667 174.692 41.3267 174.692 39.94C174.692 38.54 174.972 37.2933 175.532 36.2C176.105 35.1067 176.905 34.26 177.932 33.66C178.958 33.0467 180.152 32.74 181.512 32.74ZM193.127 35.12V38.78H198.127V40.94H193.127V44.74H198.727V47H190.307V32.88H198.727V35.12H193.127Z" fill="#00B2FF"/>
<defs>
<clipPath id="clip0">
<rect width="56" height="56" fill="white"/>
</clipPath>
</defs>
</svg>
