<svg width="64" height="54" viewBox="0 0 64 54" fill="none" xmlns="http://www.w3.org/2000/svg">
<g clip-path="url(#clip0)">
<path opacity="0.4" d="M60.8 16.875H43.7L55.727 29.5576C56.9268 30.8239 57.6005 32.541 57.6 34.3311V42.1875C57.6 42.6351 57.4314 43.0643 57.1314 43.3807C56.8313 43.6972 56.4243 43.875 56 43.875H26.4C26.1878 43.875 25.9843 43.7861 25.8343 43.6279C25.6843 43.4696 25.6 43.255 25.6 43.0313V41.3438C25.6 41.12 25.6843 40.9054 25.8343 40.7471C25.9843 40.5889 26.1878 40.5 26.4 40.5H42.7L36.3 33.75H26.4C26.1878 33.75 25.9843 33.6611 25.8343 33.5029C25.6843 33.3446 25.6 33.13 25.6 32.9063V31.2188C25.6 30.995 25.6843 30.7804 25.8343 30.6221C25.9843 30.4639 26.1878 30.375 26.4 30.375H33.1L20.3 16.875H3.2C2.35131 16.875 1.53737 17.2306 0.937258 17.8635C0.337142 18.4965 0 19.3549 0 20.25L0 50.625C0 51.5201 0.337142 52.3786 0.937258 53.0115C1.53737 53.6444 2.35131 54 3.2 54H60.8C61.6487 54 62.4626 53.6444 63.0627 53.0115C63.6629 52.3786 64 51.5201 64 50.625V20.25C64 19.3549 63.6629 18.4965 63.0627 17.8635C62.4626 17.2306 61.6487 16.875 60.8 16.875ZM14.4 43.8592V45.5625C14.4 45.7863 14.3157 46.0009 14.1657 46.1591C14.0157 46.3174 13.8122 46.4063 13.6 46.4063H12C11.7878 46.4063 11.5843 46.3174 11.4343 46.1591C11.2843 46.0009 11.2 45.7863 11.2 45.5625V43.8413C10.0649 43.7791 8.97301 43.3624 8.063 42.6442C7.97186 42.5694 7.89716 42.4747 7.84401 42.3666C7.79087 42.2584 7.76055 42.1395 7.75513 42.0178C7.74972 41.8962 7.76934 41.7747 7.81264 41.6618C7.85594 41.5489 7.92191 41.4473 8.006 41.3638L9.181 40.1836C9.31701 40.0524 9.49099 39.9735 9.67482 39.9595C9.85864 39.9455 10.0416 39.9974 10.194 40.1066C10.5776 40.3627 11.022 40.4991 11.476 40.5H14.287C14.937 40.5 15.467 39.8756 15.467 39.1089C15.467 38.4813 15.106 37.9287 14.59 37.7663L10.09 36.3424C8.231 35.7539 6.932 33.8692 6.932 31.763C6.932 29.1769 8.837 27.0759 11.199 27.0095V25.3125C11.199 25.0887 11.2833 24.8741 11.4333 24.7159C11.5833 24.5576 11.7868 24.4688 11.999 24.4688H13.599C13.8112 24.4688 14.0147 24.5576 14.1647 24.7159C14.3147 24.8741 14.399 25.0887 14.399 25.3125V27.0306C15.5343 27.0918 16.6264 27.5086 17.536 28.2277C17.7032 28.3651 17.8119 28.5669 17.8382 28.7888C17.8644 29.0107 17.8061 29.2345 17.676 29.411C17.651 29.4458 17.6232 29.4783 17.593 29.508L16.418 30.6914C16.2817 30.8221 16.1078 30.9007 15.9241 30.9146C15.7404 30.9286 15.5576 30.8771 15.405 30.7684C15.0216 30.512 14.577 30.3756 14.123 30.375H11.312C10.662 30.375 10.132 30.9994 10.132 31.7661C10.132 32.3937 10.493 32.9463 11.009 33.1088L15.509 34.5326C17.368 35.1211 18.667 37.0027 18.667 39.1089C18.667 41.6929 16.762 43.7927 14.4 43.8592Z" fill="#FF8A00"/>
<path d="M23.878 0.738074C23.4268 0.267256 22.8177 0.00317383 22.183 0.00317383C21.5483 0.00317383 20.9392 0.267256 20.488 0.738074L16.7 4.72901C16.2542 5.20309 16.0041 5.84374 16.0041 6.51143C16.0041 7.17912 16.2542 7.81977 16.7 8.29386L20.89 12.713L28.06 5.14034L23.878 0.738074ZM53.464 31.9442L30.318 7.53448L23.148 15.0966L46.288 39.5084C46.5848 39.8222 46.9374 40.0713 47.3255 40.2414C47.7136 40.4115 48.1297 40.4993 48.55 40.4998H52.8C53.2243 40.4998 53.6313 40.322 53.9314 40.0055C54.2314 39.6891 54.4 39.2598 54.4 38.8123V34.3309C54.4004 33.4359 54.0637 32.5774 53.464 31.9442ZM15.509 34.5292L11.009 33.1054C10.493 32.943 10.132 32.3903 10.132 31.7628C10.132 30.996 10.662 30.3716 11.312 30.3716H14.123C14.577 30.3722 15.0215 30.5086 15.405 30.765C15.5576 30.8737 15.7404 30.9252 15.9241 30.9113C16.1078 30.8973 16.2817 30.8187 16.418 30.688L17.593 29.5047C17.6232 29.4749 17.651 29.4424 17.676 29.4076C17.8061 29.2311 17.8644 29.0073 17.8382 28.7854C17.8119 28.5635 17.7032 28.3617 17.536 28.2243C16.6267 27.5054 15.5349 27.0886 14.4 27.0272V25.3123C14.4 25.0885 14.3157 24.8739 14.1657 24.7157C14.0156 24.5574 13.8122 24.4685 13.6 24.4685H12C11.7878 24.4685 11.5843 24.5574 11.4343 24.7157C11.2843 24.8739 11.2 25.0885 11.2 25.3123V27.0124C8.83798 27.0789 6.93298 29.1798 6.93298 31.7659C6.93298 33.8753 8.23298 35.7537 10.091 36.3422L14.591 37.766C15.107 37.9285 15.468 38.4811 15.468 39.1087C15.468 39.8754 14.938 40.4998 14.288 40.4998H11.476C11.022 40.4988 10.5776 40.3625 10.194 40.1064C10.0415 39.9971 9.85863 39.9453 9.6748 39.9593C9.49098 39.9733 9.31699 40.0522 9.18098 40.1834L8.00598 41.3636C7.92189 41.447 7.85593 41.5487 7.81262 41.6616C7.76932 41.7745 7.7497 41.896 7.75512 42.0176C7.76053 42.1393 7.79085 42.2582 7.844 42.3664C7.89714 42.4745 7.97185 42.5692 8.06298 42.644C8.97299 43.3622 10.0649 43.7789 11.2 43.841V45.5623C11.2 45.7861 11.2843 46.0007 11.4343 46.1589C11.5843 46.3172 11.7878 46.406 12 46.406H13.6C13.8122 46.406 14.0156 46.3172 14.1657 46.1589C14.3157 46.0007 14.4 45.7861 14.4 45.5623V43.859C16.762 43.7925 18.667 41.6926 18.667 39.1055C18.667 36.9993 17.368 35.1209 15.509 34.5292Z" fill="#00B2FF"/>
</g>
<defs>
<clipPath id="clip0">
<rect width="64" height="54" fill="white"/>
</clipPath>
</defs>
</svg>
