<svg width="45" height="54" viewBox="0 0 45 54" fill="none" xmlns="http://www.w3.org/2000/svg">
<path opacity="0.4" d="M22.5 0C10.125 0 0 9.1125 0 20.25C0 28.35 3 30.7125 20.25 52.9875C20.512 53.3019 20.8517 53.557 21.2422 53.7328C21.6327 53.9085 22.0634 54 22.5 54C22.9366 54 23.3673 53.9085 23.7578 53.7328C24.1483 53.557 24.488 53.3019 24.75 52.9875C42 30.7125 45 28.35 45 20.25C45 9.1125 34.875 0 22.5 0ZM22.5 37.125C21.7583 37.125 21.0333 36.9271 20.4166 36.5562C19.7999 36.1854 19.3193 35.6583 19.0355 35.0416C18.7516 34.4249 18.6774 33.7463 18.8221 33.0916C18.9668 32.4369 19.3239 31.8355 19.8484 31.3635C20.3728 30.8915 21.041 30.5701 21.7684 30.4398C22.4958 30.3096 23.2498 30.3765 23.9351 30.6319C24.6203 30.8874 25.206 31.3199 25.618 31.8749C26.0301 32.43 26.25 33.0825 26.25 33.75C26.25 34.6451 25.8549 35.5036 25.1516 36.1365C24.4484 36.7694 23.4946 37.125 22.5 37.125ZM25.6254 25.1786V25.3294C25.6254 25.7725 25.4298 26.1974 25.0817 26.5107C24.7336 26.824 24.2614 27 23.7691 27H21.8566C21.3643 27 20.8922 26.824 20.5441 26.5107C20.196 26.1974 20.0004 25.7725 20.0004 25.3294V23.625C20.0016 23.1538 20.1483 22.6923 20.4241 22.2918C20.7 21.8914 21.0941 21.5679 21.5625 21.3574C25.1496 19.7427 27.5004 18.5583 27.5004 16.875C27.5004 14.83 25.8598 12.6562 22.8129 12.6562C21.8131 12.6571 20.8397 12.9453 20.0345 13.4787C19.2293 14.0122 18.6343 14.7631 18.3363 15.622C18.0844 16.3477 17.3859 16.875 16.5398 16.875H14.5664C14.2858 16.874 14.0091 16.8161 13.7569 16.7056C13.5046 16.5951 13.2833 16.4348 13.1094 16.2366C12.9355 16.0385 12.8135 15.8075 12.7525 15.5611C12.6915 15.3146 12.6931 15.0589 12.757 14.8131C13.2789 12.7636 14.5575 10.9338 16.3839 9.62262C18.2102 8.31141 20.4766 7.5962 22.8129 7.59375C29.2676 7.59375 33.1254 12.3135 33.1254 16.875C33.1254 21.1992 29.2875 23.4636 25.6254 25.1786Z" fill="#FF8A00"/>
<path d="M22.5 30.375C21.7583 30.375 21.0333 30.5729 20.4166 30.9438C19.7999 31.3146 19.3193 31.8417 19.0354 32.4584C18.7516 33.0751 18.6774 33.7537 18.822 34.4084C18.9667 35.0631 19.3239 35.6645 19.8483 36.1365C20.3728 36.6085 21.041 36.9299 21.7684 37.0601C22.4958 37.1904 23.2498 37.1235 23.9351 36.8681C24.6203 36.6126 25.2059 36.1801 25.618 35.625C26.0301 35.07 26.25 34.4175 26.25 33.75C26.25 32.8549 25.8549 31.9964 25.1516 31.3635C24.4484 30.7306 23.4946 30.375 22.5 30.375ZM22.8129 7.59375C20.4766 7.5962 18.2102 8.31141 16.3839 9.62262C14.5575 10.9338 13.2789 12.7636 12.757 14.8131C12.6931 15.0589 12.6915 15.3146 12.7525 15.5611C12.8135 15.8075 12.9355 16.0385 13.1094 16.2366C13.2833 16.4348 13.5046 16.5951 13.7569 16.7056C14.0091 16.8161 14.2858 16.874 14.5664 16.875H16.5398C17.3859 16.875 18.0844 16.3477 18.3363 15.622C18.6343 14.7631 19.2293 14.0122 20.0344 13.4787C20.8396 12.9453 21.813 12.6571 22.8129 12.6562C25.8598 12.6562 27.5004 14.83 27.5004 16.875C27.5004 18.5625 25.1496 19.7427 21.5625 21.3574C21.0941 21.5679 20.7 21.8914 20.4241 22.2918C20.1482 22.6923 20.0015 23.1538 20.0004 23.625V25.3294C20.0004 25.7725 20.196 26.1974 20.5441 26.5107C20.8922 26.824 21.3643 27 21.8566 27H23.7691C24.2614 27 24.7336 26.824 25.0817 26.5107C25.4298 26.1974 25.6254 25.7725 25.6254 25.3294V25.1786C29.2875 23.4636 33.1254 21.1939 33.1254 16.875C33.1254 12.3135 29.2676 7.59375 22.8129 7.59375Z" fill="#00B2FF"/>
</svg>
