<svg width="11" height="28" viewBox="0 0 11 28" fill="none" xmlns="http://www.w3.org/2000/svg">
<g clip-path="url(#clip0)">
<path opacity="0.4" d="M1.10294 24.5H9.48529C9.63013 24.5 9.77356 24.5283 9.90737 24.5833C10.0412 24.6382 10.1628 24.7188 10.2652 24.8204C10.3676 24.9219 10.4489 25.0425 10.5043 25.1752C10.5597 25.3079 10.5882 25.4501 10.5882 25.5938V26.9062C10.5882 27.0499 10.5597 27.1921 10.5043 27.3248C10.4489 27.4575 10.3676 27.5781 10.2652 27.6796C10.1628 27.7812 10.0412 27.8618 9.90737 27.9167C9.77356 27.9717 9.63013 28 9.48529 28H1.10294C0.810423 28 0.529886 27.8848 0.323044 27.6796C0.116202 27.4745 0 27.1963 0 26.9062L0 25.5938C0 25.3037 0.116202 25.0255 0.323044 24.8204C0.529886 24.6152 0.810423 24.5 1.10294 24.5Z" fill="#FF8A00"/>
<path d="M5.29412 7C5.99217 7 6.67454 6.79473 7.25495 6.41015C7.83536 6.02556 8.28773 5.47894 8.55487 4.83939C8.822 4.19985 8.8919 3.49612 8.75571 2.81719C8.61953 2.13825 8.28339 1.51461 7.78979 1.02513C7.29619 0.535644 6.66731 0.202301 5.98267 0.0672531C5.29803 -0.0677952 4.58839 0.00151648 3.94347 0.266423C3.29855 0.53133 2.74734 0.979934 2.35952 1.55551C1.9717 2.13108 1.76471 2.80777 1.76471 3.5C1.76471 4.42826 2.13655 5.3185 2.79845 5.97488C3.46034 6.63125 4.35806 7 5.29412 7ZM6.83823 10.5H1.10294C0.810423 10.5 0.529886 10.6152 0.323044 10.8204C0.116202 11.0255 0 11.3037 0 11.5938L0 12.9063C0 13.1963 0.116202 13.4745 0.323044 13.6797C0.529886 13.8848 0.810423 14 1.10294 14H2.64706V24.5H7.94118V11.5938C7.94118 11.3037 7.82497 11.0255 7.61813 10.8204C7.41129 10.6152 7.13075 10.5 6.83823 10.5Z" fill="#00B2FF"/>
</g>
<defs>
<clipPath id="clip0">
<rect width="10.5882" height="28" fill="white"/>
</clipPath>
</defs>
</svg>
