<svg width="32" height="28" viewBox="0 0 32 28" fill="none" xmlns="http://www.w3.org/2000/svg">
<g clip-path="url(#clip0)">
<path opacity="0.4" d="M31.4639 0.656252V4.97656C31.4639 5.06321 31.4467 5.14899 31.4135 5.22897C31.3802 5.30895 31.3314 5.38154 31.27 5.44255C31.2085 5.50356 31.1356 5.55178 31.0554 5.58444C30.9753 5.6171 30.8895 5.63354 30.8029 5.63281C30.7176 5.63312 30.633 5.61634 30.5542 5.58347C30.4754 5.5506 30.404 5.5023 30.3441 5.44141L29.4209 4.51719L26.7607 7.18047C27.7513 8.75211 28.1549 10.6239 27.9 12.4647C27.645 14.3055 26.7481 15.9967 25.3677 17.2393C23.9873 18.4818 22.2124 19.1955 20.3571 19.2543C18.5017 19.313 16.6854 18.7129 15.2294 17.5602C16.0052 16.6392 16.6002 15.5797 16.9828 14.4375C17.5904 15.0581 18.3689 15.4835 19.219 15.6594C20.069 15.8353 20.9521 15.7538 21.7557 15.4253C22.5593 15.0968 23.247 14.5361 23.7311 13.8147C24.2151 13.0934 24.4736 12.244 24.4736 11.375C24.4736 10.506 24.2151 9.65665 23.7311 8.9353C23.247 8.21394 22.5593 7.65325 21.7557 7.32471C20.9521 6.99617 20.069 6.91466 19.219 7.09059C18.3689 7.26651 17.5904 7.6919 16.9828 8.3125C16.598 7.17124 16.0033 6.11213 15.2294 5.18985C16.5058 4.18357 18.0619 3.59717 19.6843 3.51101C21.3067 3.42485 22.916 3.84316 24.2916 4.7086L26.9519 2.04531L26.0287 1.1211C25.9367 1.02931 25.874 0.912235 25.8486 0.784723C25.8232 0.65721 25.8361 0.525009 25.8859 0.404896C25.9356 0.284783 26.0199 0.182173 26.128 0.110085C26.2361 0.0379973 26.3631 -0.000317661 26.493 1.98379e-06H30.8084C30.9822 1.98379e-06 31.149 0.0691424 31.2719 0.192213C31.3948 0.315284 31.4639 0.482204 31.4639 0.656252Z" fill="#FF8A00"/>
<path d="M15.732 11.375C15.732 9.89252 15.314 8.44017 14.5261 7.18497C13.7383 5.92977 12.6125 4.92271 11.2783 4.2796C9.94417 3.6365 8.45578 3.38347 6.98435 3.54962C5.51293 3.71578 4.11823 4.29437 2.96067 5.21884C1.80311 6.14332 0.929706 7.37613 0.440912 8.77549C-0.0478808 10.1748 -0.132211 11.6839 0.197622 13.1291C0.527454 14.5743 1.25805 15.897 2.30539 16.945C3.35272 17.9929 4.67425 18.7237 6.11799 19.0531V21.875H4.15149C3.97764 21.875 3.81091 21.9441 3.68798 22.0672C3.56505 22.1902 3.49599 22.3572 3.49599 22.5312V24.7187C3.49599 24.8928 3.56505 25.0597 3.68798 25.1828C3.81091 25.3058 3.97764 25.375 4.15149 25.375H6.11799V27.3437C6.11799 27.5178 6.18705 27.6847 6.30998 27.8078C6.43291 27.9308 6.59963 28 6.77348 28H8.95848C9.13233 28 9.29906 27.9308 9.42198 27.8078C9.54491 27.6847 9.61398 27.5178 9.61398 27.3437V25.375H11.5805C11.7543 25.375 11.921 25.3058 12.044 25.1828C12.1669 25.0597 12.236 24.8928 12.236 24.7187V22.5312C12.236 22.3572 12.1669 22.1902 12.044 22.0672C11.921 21.9441 11.7543 21.875 11.5805 21.875H9.61398V19.0531C11.3512 18.6555 12.9024 17.6795 14.0137 16.2848C15.125 14.89 15.7308 13.1591 15.732 11.375ZM7.86598 15.75C7.00168 15.75 6.15679 15.4934 5.43815 15.0126C4.7195 14.5319 4.15939 13.8486 3.82864 13.0492C3.49788 12.2498 3.41134 11.3701 3.57996 10.5215C3.74858 9.67278 4.16478 8.89323 4.77593 8.28138C5.38709 7.66952 6.16574 7.25285 7.01344 7.08404C7.86113 6.91523 8.73979 7.00187 9.5383 7.333C10.3368 7.66413 11.0193 8.22489 11.4995 8.94435C11.9797 9.66382 12.236 10.5097 12.236 11.375C12.2344 12.5348 11.7735 13.6467 10.9543 14.4668C10.1351 15.2869 9.02449 15.7484 7.86598 15.75Z" fill="#00B2FF"/>
</g>
<defs>
<clipPath id="clip0">
<rect width="31.4639" height="28" fill="white"/>
</clipPath>
</defs>
</svg>
